<?xml version="1.0" encoding="UTF-8"?>
<!DOCTYPE svg PUBLIC "-//W3C//DTD SVG 1.1//EN" "http://www.w3.org/Graphics/SVG/1.1/DTD/svg11.dtd">
<!-- Creator: CorelDRAW 2018 (64 Bit Versão de avaliação) -->
<svg xmlns="http://www.w3.org/2000/svg" xml:space="preserve" width="486px" height="394px" version="1.1" style="shape-rendering:geometricPrecision; text-rendering:geometricPrecision; image-rendering:optimizeQuality; fill-rule:evenodd; clip-rule:evenodd"
viewBox="0 0 486 394"
 xmlns:xlink="http://www.w3.org/1999/xlink">
 <defs>
  <style type="text/css">
   <![CDATA[
    .fil0 {fill:none}
    .fil3 {fill:black}
    .fil4 {fill:#274D76}
    .fil7 {fill:#74BAAB}
    .fil1 {fill:#93B4F6}
    .fil2 {fill:#EC8C92}
    .fil5 {fill:#FFF3A1}
    .fil6 {fill:white}
   ]]>
  </style>
 </defs>
 <g id="Camada_x0020_1">
  <metadata id="CorelCorpID_0Corel-Layer"/>
  <rect class="fil0" width="486" height="394"/>
  <g id="_2317401578704">
   <g id="BG">
    <g>
     <path class="fil1" d="M364.17 293.18l-56.68 0 0 -160.14 0.25 0.03 56.43 7.82 0 152.29zm-56.24 -0.44l55.8 0 0 -151.47 -55.8 -7.73 0 159.2z"/>
     <path class="fil1" d="M358.68 155.69l-46.09 0 0 -6.87 46.09 0 0 6.87zm-45.66 -0.43l45.22 0 0 -6 -45.22 0 0 6z"/>
     <path class="fil1" d="M358.68 170.28l-46.09 0 0 -6.87 46.09 0 0 6.87zm-45.66 -0.44l45.22 0 0 -6 -45.22 0 0 6z"/>
     <path class="fil1" d="M358.68 184.87l-46.09 0 0 -6.87 46.09 0 0 6.87zm-45.66 -0.44l45.22 0 0 -6 -45.22 0 0 6z"/>
     <path class="fil1" d="M358.68 199.46l-46.09 0 0 -6.87 46.09 0 0 6.87zm-45.66 -0.44l45.22 0 0 -6 -45.22 0 0 6z"/>
     <path class="fil1" d="M358.68 214.05l-46.09 0 0 -6.87 46.09 0 0 6.87zm-45.66 -0.44l45.22 0 0 -6 -45.22 0 0 6z"/>
     <path class="fil1" d="M358.68 228.64l-46.09 0 0 -6.87 46.09 0 0 6.87zm-45.66 -0.43l45.22 0 0 -6.01 -45.22 0 0 6.01z"/>
     <path class="fil1" d="M358.68 243.22l-46.09 0 0 -6.87 46.09 0 0 6.87zm-45.66 -0.43l45.22 0 0 -6 -45.22 0 0 6z"/>
     <path class="fil1" d="M358.68 257.81l-46.09 0 0 -6.87 46.09 0.01 0 6.86zm-45.66 -0.43l45.22 0 0 -6 -45.22 0 0 6z"/>
     <path class="fil1" d="M358.68 272.4l-46.09 0 0 -6.87 46.09 0 0 6.87zm-45.66 -0.43l45.22 0 0 -6 -45.22 0 0 6z"/>
     <path class="fil1" d="M307.93 293.18l-16.81 0 0 -129.77 16.81 0 0 129.77zm-16.38 -0.44l15.94 0 0 -128.89 -15.94 0 0 128.89z"/>
     <path class="fil1" d="M291.42 293.18l-16.81 0 0 -129.77 16.81 0 0 129.77zm-16.37 -0.44l15.94 0 0 -128.89 -15.94 0 0 128.89z"/>
     <path class="fil1" d="M275.01 293.18l-16.8 0 0 -129.77 16.8 0 0 129.77zm-16.37 -0.44l15.94 0 0 -128.89 -15.94 0 0 128.89z"/>
     <path class="fil1" d="M258.6 293.18l-16.8 0 0 -129.77 16.8 0 0 129.77zm-16.37 -0.44l15.94 0 0 -128.89 -15.94 0 0 128.89z"/>
     <path class="fil1" d="M299.04 163.83l-47.61 0 0 -8.64 47.6 0 0 8.64 0.01 0zm-47.17 -0.43l46.73 0 0 -7.77 -46.73 0 0 7.77z"/>
     <path class="fil1" d="M279.9 155.62l-10.01 0 0 -57.85 10.01 0 0 57.85zm-9.57 -0.43l9.13 0 0 -56.99 -9.13 0 0 56.99z"/>
     <path class="fil1" d="M242.3 293.04l-60.6 0 0 -233.17 60.59 0 0 233.17 0.01 0zm-60.16 -0.44l59.72 0 0 -232.3 -59.72 0 0 232.3z"/>
     <path class="fil1" d="M242.3 111.87l-15.48 0 0 -10.69 15.48 0 0 10.69zm-15.05 -0.43l14.61 0 0 -9.82 -14.61 0 0 9.82z"/>
     <path class="fil1" d="M227.25 111.87l-15.47 0 0 -10.69 15.47 0 0 10.69zm-15.03 -0.43l14.61 0 0 -9.82 -14.61 0 0 9.82z"/>
     <path class="fil1" d="M212.22 111.87l-15.48 0 0 -10.69 15.48 0 0 10.69zm-15.04 -0.43l14.6 0 0 -9.82 -14.6 0 0 9.82z"/>
     <path class="fil1" d="M197.18 111.87l-15.48 0 0 -10.69 15.48 0 0 10.69zm-15.04 -0.43l14.6 0 0 -9.82 -14.6 0 0 9.82z"/>
     <path class="fil1" d="M242.3 132.57l-15.48 0 0 -10.69 15.48 0 0 10.69zm-15.05 -0.44l14.61 0 0 -9.82 -14.61 0 0 9.82z"/>
     <path class="fil1" d="M227.25 132.57l-15.47 0 0 -10.69 15.47 0 0 10.69zm-15.03 -0.44l14.61 0 0 -9.82 -14.61 0 0 9.82z"/>
     <path class="fil1" d="M212.22 132.57l-15.48 0 0 -10.69 15.48 0 0 10.69zm-15.04 -0.44l14.6 0 0 -9.82 -14.6 0 0 9.82z"/>
     <path class="fil1" d="M197.18 132.57l-15.48 0 0 -10.69 15.48 0 0 10.69zm-15.04 -0.44l14.6 0 0 -9.82 -14.6 0 0 9.82z"/>
     <path class="fil1" d="M242.3 153.26l-15.48 0 0 -10.69 15.48 0.01 0 10.68zm-15.05 -0.43l14.61 0 0 -9.82 -14.61 0 0 9.82z"/>
     <path class="fil1" d="M227.25 153.26l-15.47 0 0 -10.69 15.47 0.01 0 10.68zm-15.03 -0.43l14.61 0 0 -9.82 -14.61 0 0 9.82z"/>
     <path class="fil1" d="M212.22 153.26l-15.48 0 0 -10.69 15.48 0.01 0 10.68zm-15.04 -0.43l14.6 0 0 -9.82 -14.6 0 0 9.82z"/>
     <path class="fil1" d="M197.18 153.26l-15.48 0 0 -10.69 15.48 0.01 0 10.68zm-15.04 -0.43l14.6 0 0 -9.82 -14.6 0 0 9.82z"/>
     <path class="fil1" d="M242.3 173.96l-15.48 0 0 -10.69 15.48 0 0 10.69zm-15.05 -0.44l14.61 0 0 -9.82 -14.61 0 0 9.82z"/>
     <path class="fil1" d="M227.25 173.96l-15.47 0 0 -10.69 15.47 0 0 10.69zm-15.03 -0.44l14.61 0 0 -9.82 -14.61 0 0 9.82z"/>
     <path class="fil1" d="M212.22 173.96l-15.48 0 0 -10.69 15.48 0 0 10.69zm-15.04 -0.44l14.6 0 0 -9.82 -14.6 0 0 9.82z"/>
     <path class="fil1" d="M197.18 173.96l-15.48 0 0 -10.69 15.48 0 0 10.69zm-15.04 -0.44l14.6 0 0 -9.82 -14.6 0 0 9.82z"/>
     <path class="fil1" d="M242.3 215.35l-15.48 0 0 -10.69 15.48 0 0 10.69zm-15.05 -0.43l14.61 0 0 -9.83 -14.61 0.01 0 9.82z"/>
     <path class="fil1" d="M227.25 215.35l-15.47 0 0 -10.69 15.47 0 0 10.69zm-15.03 -0.43l14.61 0 0 -9.83 -14.61 0.01 0 9.82z"/>
     <path class="fil1" d="M212.22 215.35l-15.48 0 0 -10.69 15.48 0 0 10.69zm-15.04 -0.43l14.6 0 0 -9.83 -14.6 0.01 0 9.82z"/>
     <path class="fil1" d="M197.18 215.35l-15.48 0 0 -10.69 15.48 0 0 10.69zm-15.04 -0.43l14.6 0 0 -9.83 -14.6 0.01 0 9.82z"/>
     <path class="fil1" d="M242.3 236.05l-15.48 0 0 -10.69 15.48 0 0 10.69zm-15.05 -0.44l14.61 0 0 -9.82 -14.61 0 0 9.82z"/>
     <path class="fil1" d="M227.25 236.05l-15.47 0 0 -10.69 15.47 0 0 10.69zm-15.03 -0.44l14.61 0 0 -9.82 -14.61 0 0 9.82z"/>
     <path class="fil1" d="M212.22 236.05l-15.48 0 0 -10.69 15.48 0 0 10.69zm-15.04 -0.44l14.6 0 0 -9.82 -14.6 0 0 9.82z"/>
     <path class="fil1" d="M197.18 236.05l-15.48 0 0 -10.69 15.48 0 0 10.69zm-15.04 -0.44l14.6 0 0 -9.82 -14.6 0 0 9.82z"/>
     <path class="fil1" d="M235.4 85.26l-5.88 0 0 -25.4 5.88 0.01 0 25.39zm-5.45 -0.43l5.02 0 0 -24.53 -5.02 0 0 24.53z"/>
     <path class="fil1" d="M221.58 85.26l-5.88 0 0 -25.4 5.88 0.01 0 25.39zm-5.45 -0.43l5.02 0 0 -24.53 -5.02 0 0 24.53z"/>
     <path class="fil1" d="M207.77 85.26l-5.89 0 0 -25.4 5.89 0.01 0 25.39zm-5.46 -0.43l5.02 0 0 -24.53 -5.02 0 0 24.53z"/>
     <path class="fil1" d="M193.95 85.26l-5.89 0 0 -25.4 5.89 0.01 0 25.39zm-5.46 -0.43l5.02 0 0 -24.53 -5.02 0 0 24.53z"/>
     <path class="fil1" d="M478 293.18l-114.26 0 0 -51.55 0.13 -0.06 57 -25.53 0.09 0.04 57.04 25.55 0 51.55 0 0zm-113.82 -0.44l113.38 0 0 -50.84 -56.69 -25.39 -56.69 25.39 0 50.84z"/>
     <polygon class="fil1" points="471.3,246.73 420.87,224.14 371.84,246.1 371.66,245.71 420.87,223.67 420.96,223.7 471.48,246.34 "/>
     <path class="fil1" d="M447.68 288.3l-53.63 0 0 -5.3 53.63 0 0 5.3zm-53.2 -0.43l52.77 0 0 -4.44 -52.77 0 0 4.44z"/>
     <path class="fil1" d="M455.38 293.18l-69.02 0 0 -5.31 69.02 0 0 5.31zm-68.59 -0.44l68.16 0 0 -4.44 -68.16 0 0 4.44z"/>
     <path class="fil1" d="M469.36 278.16l-10.62 0 0 -10.62 10.62 0 0 10.62zm-10.19 -0.44l9.75 0 0 -9.75 -9.75 0 0 9.75z"/>
     <path class="fil1" d="M452.4 278.16l-10.63 0 0 -10.62 10.63 0 0 10.62zm-10.19 -0.44l9.75 0 0 -9.75 -9.75 0 0 9.75z"/>
     <path class="fil1" d="M401.51 278.16l-10.63 0 0 -10.62 10.63 0 0 10.62zm-10.19 -0.44l9.75 0 0 -9.75 -9.75 0 0 9.75z"/>
     <path class="fil1" d="M384.54 278.16l-10.62 0 0 -10.62 10.62 0 0 10.62zm-10.19 -0.44l9.76 0 0 -9.75 -9.76 0 0 9.75z"/>
     <path class="fil1" d="M469.36 261.1l-10.62 0 0 -10.62 10.62 0 0 10.62zm-10.19 -0.44l9.75 0 0 -9.75 -9.75 0 0 9.75z"/>
     <path class="fil1" d="M452.4 261.1l-10.63 0 0 -10.62 10.63 0 0 10.62zm-10.19 -0.44l9.75 0 0 -9.75 -9.75 0 0 9.75z"/>
     <path class="fil1" d="M435.43 261.1l-10.62 0 0 -10.62 10.62 0 0 10.62zm-10.19 -0.44l9.76 0 0 -9.75 -9.76 0 0 9.75z"/>
     <path class="fil1" d="M418.47 261.1l-10.62 0 0 -10.62 10.62 0 0 10.62zm-10.19 -0.44l9.75 0 0 -9.75 -9.75 0 0 9.75z"/>
     <path class="fil1" d="M401.51 261.1l-10.63 0 0 -10.62 10.63 0 0 10.62zm-10.19 -0.44l9.75 0 0 -9.75 -9.75 0 0 9.75z"/>
     <path class="fil1" d="M384.54 261.1l-10.62 0 0 -10.62 10.62 0 0 10.62zm-10.19 -0.44l9.76 0 0 -9.75 -9.76 0 0 9.75z"/>
     <path class="fil1" d="M436.92 283.43l-29.93 0 0 -15.89 29.93 0 0 15.89zm-29.5 -0.44l29.06 0 0 -15.02 -29.06 0 0 15.02z"/>
     <rect class="fil1" x="421.73" y="267.75" width="0.43" height="15.46"/>
     <path class="fil1" d="M182.14 293.18l-61.99 0 0 -94.16 61.99 0 0 94.16zm-61.55 -0.44l61.11 0 0 -93.28 -61.11 0 0 93.28z"/>
     <rect class="fil1" x="125.22" y="209.79" width="51.3" height="0.43"/>
     <rect class="fil1" x="125.22" y="220.11" width="51.3" height="0.43"/>
     <rect class="fil1" x="125.22" y="230.43" width="51.3" height="0.43"/>
     <rect class="fil1" x="125.22" y="240.76" width="51.3" height="0.43"/>
     <rect class="fil1" x="125.22" y="251.08" width="51.3" height="0.43"/>
     <rect class="fil1" x="125.22" y="261.41" width="51.3" height="0.43"/>
     <rect class="fil1" x="125.22" y="271.73" width="51.3" height="0.43"/>
     <path class="fil1" d="M120.59 293.18l-55.65 0 0 -103.18 28.02 0 0 -29.85 45.98 0 0 39.31 -18.35 0 0 93.72zm-55.22 -0.44l54.78 0 0 -93.72 18.36 0 0 -38.44 -45.11 0 0 29.85 -28.03 0 0 102.31z"/>
     <path class="fil1" d="M114.38 183.52l-9.74 0 0 -14.15 9.74 0 0 14.15zm-9.3 -0.43l8.86 0 0 -13.28 -8.86 0 0 13.28z"/>
     <path class="fil1" d="M132.15 183.52l-9.73 0 0 -14.15 9.73 0 0 14.15zm-9.3 -0.43l8.86 0 0 -13.28 -8.86 0 0 13.28z"/>
     <path class="fil1" d="M114.38 217.08l-9.74 0 0 -14.15 9.74 0 0 14.15zm-9.3 -0.43l8.86 0 0 -13.29 -8.86 0 0 13.29z"/>
     <path class="fil1" d="M114.38 250.64l-9.74 0 0 -14.15 9.74 0 0 14.15zm-9.3 -0.43l8.86 0 0 -13.29 -8.86 0 0 13.29z"/>
     <path class="fil1" d="M97.63 217.08l-9.73 0 0 -14.15 9.73 0 0 14.15zm-9.3 -0.43l8.87 0 0 -13.29 -8.87 0 0 13.29z"/>
     <path class="fil1" d="M97.63 250.64l-9.73 0 0 -14.15 9.73 0 0 14.15zm-9.3 -0.43l8.87 0 0 -13.29 -8.87 0 0 13.29z"/>
     <path class="fil1" d="M80.55 217.08l-9.74 0 0 -14.15 9.74 0 0 14.15zm-9.3 -0.43l8.86 0 0 -13.29 -8.86 0 0 13.29z"/>
     <path class="fil1" d="M80.55 250.64l-9.74 0 0 -14.15 9.74 0 0 14.15zm-9.3 -0.43l8.86 0 0 -13.29 -8.86 0 0 13.29z"/>
     <path class="fil1" d="M65.37 293.18l-57.37 0 0 -67.82 57.37 0 0 67.82zm-56.94 -0.44l56.51 0 0 -66.95 -56.51 0 0 66.95z"/>
     <path class="fil1" d="M48.76 243.37l-40.76 0 0 -7.29 40.76 0 0 7.29zm-40.33 -0.43l39.89 0 0 -6.43 -39.89 0 0 6.43z"/>
     <path class="fil1" d="M48.76 261.43l-40.76 0 0 -7.3 40.76 0 0 7.3zm-40.33 -0.44l39.89 0 0 -6.42 -39.89 0 0 6.42z"/>
     <path class="fil1" d="M48.76 279.49l-40.76 0 0 -7.3 40.76 0 0 7.3zm-40.33 -0.44l39.89 0 0 -6.42 -39.89 0 0 6.42z"/>
     <path class="fil1" d="M363.74 242.1l0 -90.06 71.69 0 0 71 -14.56 -6.53 -57.13 25.59zm0.44 -89.63l0 88.96 56.69 -25.39 0.09 0.03 14.04 6.29 0 -69.89 -70.82 0z"/>
     <rect class="fil1" x="404.03" y="164.51" width="31.18" height="0.43"/>
     <rect class="fil1" x="404.03" y="174.59" width="31.18" height="0.43"/>
     <rect class="fil1" x="404.03" y="184.68" width="31.18" height="0.43"/>
     <rect class="fil1" x="404.03" y="194.76" width="31.18" height="0.43"/>
     <rect class="fil1" x="404.03" y="204.85" width="31.18" height="0.43"/>
     <rect class="fil1" x="363.64" y="164.51" width="20.69" height="0.43"/>
     <rect class="fil1" x="363.64" y="174.59" width="20.69" height="0.43"/>
     <rect class="fil1" x="363.64" y="184.68" width="20.69" height="0.43"/>
     <rect class="fil1" x="363.64" y="194.76" width="20.69" height="0.43"/>
     <rect class="fil1" x="363.64" y="204.85" width="20.69" height="0.43"/>
    </g>
    <rect class="fil1" x="75.12" y="322.53" width="335.14" height="0.43"/>
    <rect class="fil1" x="69.76" y="333.7" width="335.14" height="0.43"/>
   </g>
   <g id="mechanic">
    <g>
     <path class="fil2" d="M244.17 111.78c-4.53,-3.54 -7.83,-7.78 -9.79,-10.69 -1.15,-1.73 -2.08,-3.59 -2.81,-5.53 -2.03,-5.43 -7.16,-19.53 -20.25,-14.11 -13.74,5.67 -6.19,21.36 -2.76,30.22 1.9,4.92 5.86,5.87 11.27,3.86 1.79,-0.66 3.78,0.36 4.22,2.21 1.42,5.93 0.53,11.97 0.32,19.08 8.77,-3.17 17.47,-10.97 19.8,-25.04z"/>
    </g>
    <g>
     <path class="fil3" d="M228.91 313.93l-2.11 0c-0.55,0 -0.81,-0.66 -0.41,-1.03 3.49,-3.21 5.62,-7.87 5.43,-13.02 -0.32,-8.72 -7.42,-15.84 -16.15,-16.18 -9.6,-0.37 -17.49,7.3 -17.49,16.82 0,4.9 2.09,9.31 5.43,12.38 0.4,0.37 0.15,1.03 -0.4,1.03l-2.11 0c-0.89,0 -1.69,0.65 -1.78,1.54 -0.1,1.01 0.7,1.88 1.7,1.88l27.98 0c0.99,0 1.79,-0.87 1.69,-1.88 -0.09,-0.89 -0.89,-1.54 -1.78,-1.54z"/>
    </g>
    <g>
     <g>
      <circle class="fil4" cx="215.17" cy="300.52" r="8.67"/>
     </g>
    </g>
    <g>
     <path class="fil3" d="M351.73 313.93l-2.12 0c-0.54,0 -0.8,-0.66 -0.4,-1.03 3.48,-3.21 5.61,-7.87 5.42,-13.02 -0.32,-8.72 -7.42,-15.84 -16.14,-16.18 -9.6,-0.37 -17.5,7.3 -17.5,16.82 0,4.9 2.09,9.31 5.44,12.38 0.39,0.37 0.14,1.03 -0.4,1.03l-2.12 0c-0.89,0 -1.69,0.65 -1.78,1.54 -0.1,1.01 0.7,1.88 1.7,1.88l27.98 0c0.99,0 1.79,-0.87 1.7,-1.88 -0.1,-0.89 -0.89,-1.54 -1.78,-1.54z"/>
    </g>
    <g>
     <path class="fil5" d="M273.17 130.28c-6.17,-8.49 -15.06,-11.03 -22.61,-14.54 -2.34,-1.09 -4.48,-2.46 -6.39,-3.96 -2.33,14.07 -11.04,21.87 -19.8,25.04 -0.23,7.64 0.33,16.51 5.36,27.79l1.98 4.76 21.85 21.72 30.85 -3.3c0,0 -4.22,-47.84 -11.24,-57.51z"/>
    </g>
    <g>
     <g>
      <circle class="fil4" cx="337.99" cy="300.52" r="8.67"/>
     </g>
    </g>
    <g>
     <path class="fil4" d="M196.92 212.59l-75.47 60.49c-6.68,5.19 -14.23,4.2 -21.7,-1.94 -1.24,-1.03 -4.84,-4.25 -4.84,-4.25 -0.97,-1 -2.57,-1.03 -3.58,-0.06l-0.7 0.68c-0.52,0.51 -0.54,1.34 -0.03,1.86l28.95 30.01c0.62,0.64 1.64,0.65 2.28,0.03 0.67,-0.64 1.73,-0.73 2.43,-0.13 0.81,0.69 0.83,1.91 0.09,2.62l-0.06 0.06c-0.64,0.62 -0.66,1.64 -0.04,2.28l8.76 9.09c3.16,3.27 8.3,3.61 11.86,0.78l116.89 -94.34 -6.95 -7.19 -57.89 0 0 0.01z"/>
    </g>
    <g>
     <path class="fil5" d="M366.68 289.47l-3.54 0 0 -11.58c0,-2.34 -1.92,-4.27 -4.27,-4.27l-1.39 0c-4.77,-5.83 -11.47,-9.57 -19.54,-9.57l-13.93 0c-1.12,0 -2.19,-0.42 -3.01,-1.19l-23.94 -23.49c-4.97,-4.67 -11.54,-7.27 -18.36,-7.27l-36.62 0c-10.91,0 -19.22,3.12 -26.18,11.52l-26.43 30.21 0 35.35c0,0 1.1,0 2.99,0 1.17,0 2.23,-0.71 2.68,-1.8 2.73,-6.52 8.91,-14.46 19.87,-14.09 11.15,0.37 16,6.18 18.09,10.66 1.35,2.89 1.76,6.66 2.11,7.25 0.69,1.16 1.95,1.94 3.39,1.94l75.96 0c2.07,0 3.76,-1.69 3.76,-3.76l0 -2.73c0,-4.76 1.59,-9.43 4.67,-13.06 2.92,-3.44 7.54,-6.49 14.76,-6.49 14.58,0 18.64,13.31 19.45,15.96 1.3,4.19 2.95,6.21 5.3,6.21l2.32 0c2.35,0 4.27,-1.9 4.27,-4.25 0.01,-11.53 -2.41,-15.55 -2.41,-15.55z"/>
    </g>
    <path class="fil3" d="M298.81 303.78l-42.75 0c-4.24,0 -7.68,-3.44 -7.68,-7.67l0 -50.33c0,-6.03 4.91,-10.94 10.93,-10.94l20.41 0c4.18,0 8.03,2.1 10.31,5.61l12.49 19.29c1.29,1.99 1.97,4.3 1.97,6.68l-0.87 0c0,-2.21 -0.63,-4.36 -1.84,-6.21l-12.49 -19.29c-2.11,-3.26 -5.68,-5.21 -9.57,-5.21l-20.41 0c-5.55,0 -10.06,4.52 -10.06,10.07l0 50.33c0,3.75 3.06,6.81 6.81,6.81l42.75 0c2.65,0 4.81,-2.16 4.81,-4.81l0.86 0c0.01,3.13 -2.54,5.67 -5.67,5.67z"/>
    <g>
     <path class="fil1" d="M290.31 264.1l-28.82 0c-4.34,0 -7.85,-3.47 -7.85,-7.75l0 -9.9c0,-3.75 3.08,-6.79 6.87,-6.79l17.72 0c3.05,0 5.89,1.54 7.5,4.09l8.49 13.37c1.93,3.04 -0.28,6.98 -3.91,6.98z"/>
    </g>
    <g>
     <path class="fil1" d="M219.1 264.1l17.48 0c4.37,0 7.91,-3.49 7.91,-7.8l0 -10.14c0,-3.59 -2.95,-6.5 -6.59,-6.5l-3.31 0c-3.54,0 -8.28,2.88 -10.53,5.55 -2.03,2.41 -7.75,9.91 -7.75,9.91 -3.14,3.48 -1.92,8.98 2.79,8.98z"/>
    </g>
    <g>
     <path class="fil6" d="M360.65 295.01l-2.86 0c-0.61,0 -1.11,-0.5 -1.11,-1.11l0 0c0,-0.62 0.5,-1.12 1.11,-1.12l2.86 0c0.62,0 1.12,0.51 1.12,1.12l0 0c0,0.61 -0.5,1.11 -1.12,1.11z"/>
     <path class="fil3" d="M360.65 295.45l-2.86 0c-0.85,0 -1.55,-0.7 -1.55,-1.55 0,-0.86 0.7,-1.55 1.55,-1.55l2.86 0c0.86,0 1.55,0.69 1.55,1.55 0,0.85 -0.69,1.55 -1.55,1.55zm-2.86 -2.23c-0.37,0 -0.68,0.31 -0.68,0.68 0,0.37 0.31,0.68 0.68,0.68l2.86 0c0.38,0 0.68,-0.31 0.68,-0.68 0,-0.38 -0.3,-0.68 -0.68,-0.68l-2.86 0z"/>
    </g>
    <g>
     <path class="fil6" d="M364.33 290.88l0 0c-2.18,0 -3.97,-1.79 -3.97,-3.97l0 -9.64c0,-0.89 0.73,-1.63 1.63,-1.63l0 0c3.47,0 6.31,2.85 6.31,6.32l0 4.94c0,2.19 -1.78,3.98 -3.97,3.98z"/>
     <path class="fil3" d="M364.33 291.31c-2.43,0 -4.4,-1.97 -4.4,-4.4l0 -9.64c0,-1.13 0.92,-2.06 2.06,-2.06 3.72,0 6.75,3.03 6.75,6.75l0 4.94c0,2.43 -1.98,4.41 -4.41,4.41zm-2.34 -15.23c-0.66,0 -1.19,0.53 -1.19,1.19l0 9.64c0,1.95 1.58,3.53 3.53,3.53 1.95,0 3.54,-1.58 3.54,-3.53l0 -4.94c0,-3.25 -2.64,-5.89 -5.88,-5.89z"/>
    </g>
    <rect class="fil3" x="208.27" y="268.05" width="125.75" height="0.87"/>
    <rect class="fil3" x="204.24" y="273.46" width="146.88" height="0.87"/>
    <path class="fil3" d="M243.32 294.05l-0.87 0c0,-7.89 -6.42,-14.31 -14.31,-14.31l-28.52 0 0 -0.87 28.52 0c8.37,0 15.18,6.81 15.18,15.18z"/>
    <g>
     <path class="fil1" d="M307.11 245.3c-2.79,-2.67 -6.27,-5.97 -11.8,-5.64l0 0c-0.58,0 -0.91,0.66 -0.55,1.12l14.62 18.98c1.44,1.87 3.65,2.96 6.01,2.96l5.29 0c1.26,0 -9.32,-13.35 -13.57,-17.42z"/>
    </g>
    <g>
     <g>
      <g>
       <path class="fil1" d="M412.32 185.55c14.64,-12.41 6.08,-48.65 -24.26,-51.65 0.84,-7.65 -9.41,-20.5 -24.59,-24.48 -21.33,-5.6 -63.16,3.41 -63.15,40.58 0.01,20.05 21.7,34.75 46.22,27.68 3.65,17.46 13.92,24.8 28.73,24.46 -4.88,4.61 -4.39,15.07 -0.41,19.5 0.36,0.41 0.12,1.06 -0.42,1.12 -13.4,1.64 -16.21,15.42 -16.18,22.85 0,0.42 -0.52,0.59 -0.79,0.26 -1.85,-2.27 -5.39,-2.58 -8.71,0.04 -4.77,3.77 -5.54,10.29 -2.86,13 4.81,4.88 15.68,1.3 16.8,-5.05 0.05,-0.3 0.32,-0.48 0.54,-0.27 4.68,4.28 21.06,12.74 35.8,2.4 9,-6.31 9.48,-18.87 7.07,-25.48 -0.26,-0.72 0.22,-1.45 0.97,-1.59 29.75,-5.55 21.48,-44.91 5.24,-43.37zm-48.9 29.81c-0.71,-2.61 -5.76,-2.29 -5.3,1.57 0.46,3.85 5.95,0.84 5.3,-1.57zm-11.55 -2.73c3.69,-1.94 5.26,-5.09 4.38,-7.35 -0.67,-1.69 -3.76,-2.04 -7.73,-1.06 -2.47,0.6 -3.76,3.32 -3.84,5.16 -0.06,1.61 0.75,3.17 2.2,3.89 1.67,0.83 3.34,0.21 4.99,-0.64zm-32.76 -25.44c-6.21,0.5 -9.7,2.92 -11.02,5.62 -4.25,8.69 6.22,21.84 22.77,19.18 16.72,-2.69 11.97,-26.73 -11.75,-24.8zm91.08 -62.37c4.94,-2.23 9.43,-12.47 -0.46,-16.24 -5.21,-1.99 -9.19,-1 -12.26,0.24 -3.64,1.46 -5.93,3.59 -6.33,6.22 -1.49,10 14.24,11.95 19.05,9.78zm-22.37 -20.5c2.42,-1.38 2.88,-3.5 2.37,-5.34 -0.5,-1.85 -1.95,-3.42 -5.9,-3.7 -4.88,-0.36 -8.43,2.64 -8.56,5.13 -0.24,4.86 7.24,6.67 12.09,3.91z"/>
      </g>
     </g>
    </g>
    <rect class="fil3" transform="matrix(1.68357 -0.323341 0.323341 1.68357 344.87 234.525)" width="0.51" height="19.77"/>
    <g>
     <path class="fil7" d="M173.21 203.11c-10.25,0 -17.4,9.82 -18.19,20.05l-8.13 74.61c-0.92,8.41 -6.87,13.14 -16.48,14.24 -1.6,0.19 -6.42,0.54 -6.42,0.54 -1.4,0 -2.52,1.13 -2.52,2.52l0 0.98c0,0.73 0.58,1.32 1.31,1.32l41.69 0.04c0.89,0 1.62,-0.72 1.62,-1.62l0 0c0,-0.92 0.67,-1.75 1.6,-1.84 1.05,-0.1 1.94,0.73 1.94,1.76l0 0.09c0,0.89 0.72,1.61 1.61,1.61l12.62 0.02c4.55,0.01 8.37,-3.45 8.8,-7.98l6.41 -65.88c0.64,-6.59 6.17,-11.61 12.79,-11.61l61.2 0c9.96,0 18.03,-8.46 18.03,-18.42l0 -10.43 -117.88 0 0 0z"/>
    </g>
    <g>
     <path class="fil4" d="M177.81 203.11l-19.78 -39.08c-1.21,-2.38 -3.66,-3.88 -6.33,-3.88l-8.8 0c-1.57,0 -2.56,1.66 -1.83,3.03l21.14 39.93c0,0 1.97,6.48 5.54,6.48l4.49 0 8.85 0 33.05 0c1.98,0 3.6,-1.61 3.6,-3.6l0 -2.88 -39.93 0 0 0z"/>
    </g>
    <g>
     <path class="fil1" d="M174.74 209.59l-8.85 0c-4.06,0 -7.79,-2.24 -9.69,-5.84l-21.49 -40.56c-0.73,-1.38 0.27,-3.04 1.83,-3.04l8.81 0c2.67,0 5.12,1.5 6.32,3.89l23.07 45.55z"/>
    </g>
    <g>
     <path class="fil3" d="M304.86 309.06c1.92,0 3.53,1.35 3.93,3.15l-64.13 0c0.4,-1.8 2,-3.15 3.93,-3.15l56.27 0 0 0zm0 -0.87l-56.27 0c-2.7,0 -4.89,2.19 -4.89,4.89l66.05 0c-0.01,-2.7 -2.19,-4.89 -4.89,-4.89l0 0z"/>
    </g>
    <g>
     <path class="fil2" d="M174 164.78l2.35 -0.01c3.35,-0.01 6.56,-1.34 8.95,-3.69l3.95 -3.88c0.15,-0.16 0.41,-0.03 0.38,0.19l-2.33 16.87c0,0 -13.94,3.61 -15.21,-7.3 -0.13,-1.15 0.75,-2.17 1.91,-2.18z"/>
    </g>
    <g>
     <path class="fil2" d="M292.09 180.24l-14.47 -48.61c-3.03,-9.55 -13.23,-14.84 -22.78,-11.81l0 0c-11.84,3.75 -17.43,16.38 -13.67,28.22l7.8 24.12 -42.85 -17.78c-7.47,-3.19 -17.06,-1.2 -18.57,6.79 -1.06,5.66 -10.3,41.87 -4.27,41.9l6.33 0c4.19,-0.72 4.49,-3.94 5.47,-9.88 1.72,0.29 5.39,1.04 8.39,-0.35 1.13,1.3 5.62,1.66 8.76,0.35 2.39,0.77 5.51,0.58 7.22,-0.4 15.28,8.47 30.39,16.42 38.96,20.5 7.3,3.48 14.18,3.37 21.19,1.69 15.34,-4.59 16.41,-22.4 12.49,-34.74z"/>
    </g>
    <g>
     <path class="fil5" d="M287.19 163.78l-9.57 -32.15c-3.03,-9.55 -13.23,-14.84 -22.79,-11.81 -11.83,3.75 -17.42,16.38 -13.67,28.22l7.57 23.37c3.11,-1.01 25.06,-7.95 38.46,-7.63z"/>
    </g>
    <g>
     <path class="fil1" d="M370.64 305.02l-7.94 0c-0.33,0 -0.63,-0.21 -0.75,-0.52l-2.06 -5.49c-0.19,-0.52 0.2,-1.07 0.75,-1.07l10 -0.01c1.61,0 2.91,1.3 2.91,2.91l0 1.26c0,1.61 -1.3,2.92 -2.91,2.92z"/>
    </g>
    <path class="fil3" d="M268.08 180.46c-0.11,-0.03 -10.68,-4.15 -19.29,-7.9l0.35 -0.8c8.59,3.75 19.14,7.86 19.25,7.9l-0.31 0.8z"/>
    <rect class="fil3" transform="matrix(0.236077 -1.69814 1.69814 0.236077 195.441 191.288)" width="8.2" height="0.51"/>
    <path class="fil3" d="M204.87 192.13l-0.77 -0.4c0.54,-1.06 0.87,-2.19 0.98,-3.36l0.87 -8.61 0.87 0.09 -0.87 8.6c-0.13,1.29 -0.5,2.52 -1.08,3.68z"/>
    <path class="fil3" d="M213.71 192.47l-0.78 -0.37c0.48,-1.01 0.79,-2.09 0.9,-3.2l0.79 -7.86 0.86 0.09 -0.79 7.86c-0.12,1.21 -0.45,2.38 -0.98,3.48z"/>
    <path class="fil3" d="M220.83 192.34l-0.76 -0.42c0.63,-1.14 1.02,-2.37 1.15,-3.66l0.6 -5.96 0.86 0.08 -0.6 5.96c-0.14,1.42 -0.56,2.76 -1.25,4z"/>
    <rect class="fil6" transform="matrix(1.2529 -1.17027 1.17027 1.2529 125.008 274.96)" width="0.51" height="16.41"/>
    <rect class="fil3" x="153.54" y="296.21" width="40.54" height="0.87"/>
    <path class="fil3" d="M210.83 106.81c-0.3,0 -0.59,-0.07 -0.86,-0.19 -0.52,-0.25 -0.91,-0.71 -1.07,-1.27 -0.25,-0.87 -2.41,-8.55 0.55,-9.61l0.3 0.81c-1.67,0.6 -0.89,5.57 -0.01,8.56 0.09,0.32 0.31,0.58 0.6,0.72 0.3,0.14 0.64,0.14 0.94,0.01l1.94 -0.82 0.34 0.79 -1.93 0.82c-0.26,0.12 -0.53,0.18 -0.8,0.18z"/>
    <path class="fil3" d="M212.3 97.14l-0.34 -0.8c1.72,-0.72 2.97,-1.16 4.71,-0.77l-0.19 0.84c-1.44,-0.32 -2.43,0 -4.18,0.73z"/>
    <path class="fil3" d="M205.61 100.6l-0.64 -0.59c0.77,-0.83 2.4,-1.69 3.48,-2.01l0.25 0.83c-0.97,0.29 -2.45,1.07 -3.09,1.77z"/>
    <path class="fil3" d="M227.33 98.8l-0.4 -0.77c0.9,-0.47 1.46,-1.39 1.46,-2.4 0,-1.48 -1.22,-2.69 -2.7,-2.69 -1.11,0 -2.09,0.66 -2.51,1.68l-0.8 -0.32c0.55,-1.36 1.85,-2.23 3.31,-2.23 1.96,0 3.56,1.6 3.56,3.56 0,1.34 -0.74,2.55 -1.92,3.17z"/>
    <g>
     <path class="fil5" d="M228.54 88.65c-0.21,-0.4 -0.49,-0.82 -0.5,-0.85 -3.12,-5.2 -8.25,-9.86 -16.72,-6.36 -4.75,1.96 -6.95,5.11 -7.66,8.76 -0.26,1.31 1.49,2.03 2.25,0.93l0.01 -0.03c1.36,-1.95 10.1,-4.57 13.87,-4.22 3.49,0.32 7.44,1.46 8.75,1.77z"/>
    </g>
    <g>
     <path class="fil4" d="M203.94 98.14c-0.48,-6.27 11.06,-10.97 23.56,-9.75 -5.07,-1.27 -14.93,-4.46 -19.74,-6.03 -1.8,-0.58 -3.74,-0.51 -5.49,0.19l0 0c-6.87,2.76 -6.69,12.56 0.28,15.06 0.26,0.09 1.19,0.46 1.39,0.53z"/>
    </g>
    <path class="fil3" d="M209.49 111.28c-1.27,0 -2.58,-0.63 -3.05,-2.17l0.83 -0.26c0.42,1.38 1.72,1.68 2.7,1.52 1.09,-0.18 2.24,-0.97 2.21,-2.29 0,-0.22 0.12,-0.42 0.32,-0.5 0.19,-0.09 0.41,-0.04 0.55,0.1 1.11,1.07 3.12,0.78 4.43,-0.12 0.47,-0.33 1.95,-1.51 1.21,-3.24l0.8 -0.34c0.66,1.55 0.08,3.19 -1.52,4.29 -1.39,0.96 -3.49,1.37 -4.98,0.45 -0.29,1.44 -1.62,2.3 -2.88,2.51 -0.2,0.03 -0.4,0.05 -0.62,0.05z"/>
    <rect class="fil6" x="206.96" y="313.07" width="16.56" height="0.87"/>
    <rect class="fil6" x="329.52" y="313.07" width="16.56" height="0.87"/>
    <g>
     <path class="fil5" d="M351.24 226.67l0 0c-2.17,0.51 -5.48,3.4 -7.72,6.27 -5.73,7.35 -22.52,29.73 -22.52,29.73 -0.31,0.4 -0.28,0.96 0.05,1.35l0.52 0.67c0.25,0.33 0.64,0.52 1.06,0.52l3.29 0 25.24 -36.2 0.85 -1.21c0.38,-0.55 -0.11,-1.28 -0.77,-1.13z"/>
    </g>
    <path class="fil3" d="M246.14 167.01l-6.17 -19.23c-3.29,-10.36 0.95,-21.73 10.07,-27.04l0.44 0.75c-8.78,5.11 -12.85,16.05 -9.69,26.03l6.18 19.22 -0.83 0.27z"/>
    <path class="fil3" d="M186.27 201.99l-3.81 0 0 -0.87 3.81 0c1.94,0 3.51,-1.57 3.51,-3.51 0,-1.93 -1.57,-3.5 -3.51,-3.5l-4 0 0 -0.87 4 0c2.41,0 4.37,1.96 4.37,4.37 0,2.41 -1.96,4.38 -4.37,4.38z"/>
    <rect class="fil3" transform="matrix(0.319741 -1.68425 1.68425 0.319741 184.052 174.641)" width="7.67" height="0.51"/>
   </g>
  </g>
 </g>
</svg>
